<svg width="781" height="310" viewBox="0 0 781 310" fill="none" xmlns="http://www.w3.org/2000/svg">
<path fill-rule="evenodd" clip-rule="evenodd" d="M430.796 4.95742C430.749 7.89042 430.387 12.8834 429.992 16.0534C429.364 21.0804 428.705 22.3934 424.826 26.3454L420.38 30.8754L420.315 40.6284C420.28 45.9924 419.888 50.9694 419.443 51.6874C418.999 52.4064 417.228 53.6304 415.508 54.4074C413.788 55.1844 411.705 56.1924 410.88 56.6484C410.055 57.1034 407.192 58.5364 404.518 59.8314C399.166 62.4244 397.282 65.2714 398.282 69.2564C399.048 72.3064 404.568 78.4364 405.61 77.3934C406.002 77.0024 405.885 76.3684 405.351 75.9864C403.496 74.6574 400.789 68.1904 401.41 66.5724C402.036 64.9414 403.58 64.0724 413.952 59.5094C422.548 55.7274 423.88 53.4034 423.88 42.1894V32.8574L428.365 27.8074C430.832 25.0294 433.102 21.7524 433.409 20.5234C434.456 16.3414 433.465 0.480416 432.13 0.0374157C431.241 -0.256584 430.856 1.16342 430.796 4.95742ZM293.04 29.7694C293.259 30.4264 295.9 31.8144 298.909 32.8544C302.641 34.1434 305.572 36.0634 308.13 38.8954C312.452 43.6804 312.649 44.8314 309.805 48.6774C308.421 50.5504 307.838 52.6144 308.055 54.8814C308.328 57.7324 309.406 59.0534 314.753 63.0844C320.802 67.6444 323.779 68.5984 324.567 66.2294C324.762 65.6464 323.641 64.5214 322.076 63.7294C310.665 57.9554 308.763 54.5704 313.932 49.2364C316.964 46.1094 317.129 45.6234 315.925 43.3734C313.458 38.7654 308.69 33.7344 305.033 31.8814C300.284 29.4744 292.484 28.1014 293.04 29.7694ZM507.323 58.2654C505.679 61.3194 505.599 62.2914 506.666 66.2804C507.334 68.7764 507.88 71.2294 507.88 71.7314C507.88 72.2334 505.518 74.0034 502.63 75.6664C496.725 79.0654 491.69 83.4084 490.008 86.5514C488.482 89.4024 488.581 95.9994 490.183 98.1894C491.331 99.7604 491.633 99.7934 492.731 98.4694C493.574 97.4544 493.638 96.7584 492.929 96.3204C492.352 95.9644 491.88 94.1424 491.88 92.2714C491.88 88.2074 494.344 85.5724 504.226 79.0724C510.969 74.6364 511.064 74.5134 510.487 70.9294C508.769 60.2694 508.698 59.0214 509.765 58.3614C511.064 57.5584 511.276 54.7904 510.037 54.7904C509.574 54.7904 508.353 56.3544 507.323 58.2654ZM203.547 71.4574C202.225 72.7794 202.936 73.5514 206.049 74.1744C212.987 75.5614 227.328 89.2244 231.318 98.2474C232.673 101.309 234.591 104.071 235.58 104.384C240.883 106.06 250.466 110.377 253.587 112.495C258.757 116.004 260.044 113.88 255.208 109.82C251.572 106.768 241.044 101.79 238.225 101.79C237.501 101.79 235.594 99.1854 233.986 96.0004C229.174 86.4684 220.168 77.6104 209.878 72.2894C206.758 70.6764 204.61 70.3934 203.547 71.4574ZM587.451 79.9774C587.222 80.6994 586.491 83.7654 585.826 86.7904C584.394 93.2964 583.585 95.0224 579.551 100.167C577.879 102.299 575.331 106.349 573.89 109.167C571.152 114.518 570.355 115.08 556.38 121.524C549.642 124.63 547.829 127.264 547.083 135.031C546.529 140.798 548.405 141.563 549.352 135.956C550.453 129.441 553.124 126.217 559.351 123.887C562.443 122.73 566.695 120.905 568.8 119.831C572.749 117.816 577.875 112.532 577.887 110.463C577.891 109.818 580.097 106.057 582.79 102.105C587.434 95.2894 589.88 88.4584 589.88 82.3004C589.88 79.6344 588.098 77.9304 587.451 79.9774ZM365.88 85.4444C359.54 85.8744 347.712 87.9424 345.63 88.9844C344.668 89.4664 343.88 90.5554 343.88 91.4054C343.88 92.6114 344.558 92.8004 346.98 92.2684C349.791 91.6514 350.018 91.7814 349.418 93.6724C349.054 94.8184 349.467 100.601 350.337 106.523C351.956 117.558 351.926 151.374 350.271 180.29C349.254 198.052 349.184 199.609 349.025 207.833L348.88 215.375L343.63 215.333C339.611 215.3 338.38 215.642 338.38 216.79C338.38 218.271 340.064 218.684 353.154 220.417C356.426 220.85 359.644 220.509 363.385 219.332C372.938 216.327 378.771 210.946 371.826 211.544L368.88 211.798L368.724 205.044C368.638 201.329 368.472 196.94 368.355 195.29C367.778 187.153 370.102 159.125 371.59 156.29C377.459 145.101 385.384 145.234 390.718 156.611C393.211 161.928 393.371 163.131 393.24 175.495C393.161 182.995 392.435 191.853 391.561 195.995C390.714 200.007 389.733 205.448 389.382 208.086C388.828 212.249 388.488 212.8 386.807 212.267C385.534 211.863 384.658 212.205 384.252 213.264C383.388 215.515 384.11 215.967 390.084 216.911C396.393 217.909 398.597 216.602 395.084 213.947C392.535 212.021 392.57 210.711 395.566 195.79C396.395 191.665 397.142 182.171 397.226 174.691L397.38 161.093L393.88 154.191C390.998 148.508 389.622 146.907 386.086 145.123C380.957 142.534 376.459 143.311 373.547 147.287C372.538 148.664 371.413 149.79 371.047 149.791C370.68 149.792 370.518 140.332 370.686 128.769C370.918 112.891 370.612 105.712 369.436 99.4404C367.519 89.2074 367.5 89.7904 369.758 89.7904C370.79 89.7904 372.179 89.1354 372.844 88.3344C374.185 86.7174 373.421 84.6934 371.571 84.9654C370.916 85.0614 368.355 85.2774 365.88 85.4444ZM161.895 87.9074C151.358 88.9654 148.81 90.1734 153.596 91.8414L156.686 92.9184L157.306 105.604C157.648 112.581 158.307 124.14 158.773 131.29C159.256 138.725 159.224 151.781 158.698 161.79C156.995 194.158 157.963 211.555 161.756 216.79C164.157 220.103 170.676 223.753 174.229 223.774C177.236 223.791 182.88 218.84 182.88 216.184C182.88 214.569 181.287 214.322 180.376 215.797C180.033 216.351 178.441 217.483 176.837 218.312C174.157 219.698 173.564 219.652 169.495 217.739C164.068 215.188 163.305 213.422 161.796 199.902C160.897 191.847 160.92 185.932 161.898 173.563C163.176 157.394 162.88 140.262 160.78 108.938C160.214 100.495 159.918 93.4184 160.124 93.2134C160.329 93.0084 163.684 92.5434 167.58 92.1814L174.663 91.5234L175.4 104.289C175.805 111.311 175.863 122.958 175.53 130.173C175.197 137.387 174.484 154.315 173.946 167.79C173.407 181.265 172.418 197.139 171.748 203.065C170.814 211.319 170.804 214.114 171.705 215.015C172.44 215.75 173.205 215.834 173.747 215.24C175.966 212.81 179.551 144.132 179.193 110.9C179.012 94.1114 179.081 93.4474 181.193 91.7204C185.96 87.8234 178.135 86.2764 161.895 87.9074ZM116.279 89.1934C115.491 91.2454 116.614 92.7904 118.894 92.7904C121.977 92.7904 122.236 97.8374 120.758 129.128C120 145.167 119.381 166.84 119.383 177.29L119.386 196.29L122.757 205.29C126.466 215.192 130.292 220.111 135.666 221.884C142.032 223.985 149.88 221.087 149.88 216.635C149.88 214.411 147.603 214.214 145.88 216.29C145.131 217.192 142.944 217.79 140.392 217.79C132.952 217.79 129.194 213.218 124.834 198.865C122.447 191.007 122.433 185.675 124.64 128.29C124.936 120.59 125.153 109.464 125.123 103.565L125.067 92.8404L131.224 93.4554C134.61 93.7934 137.454 94.1194 137.543 94.1804C137.633 94.2404 137.316 114.09 136.837 138.29C135.508 205.596 135.579 215.79 137.38 215.79C138.205 215.79 138.904 215.677 138.933 215.54C139.234 214.122 140.147 175.579 140.728 139.79C141.313 103.667 141.72 94.8714 142.89 93.0654C143.815 91.6354 143.982 90.5184 143.355 89.9384C142.819 89.4424 136.637 88.7344 129.617 88.3644C118.768 87.7934 116.769 87.9174 116.279 89.1934ZM316.652 90.1114C308.188 93.0254 300.534 98.2674 293.03 106.289C286.08 113.718 283.1 119.461 281.576 128.356C280.521 134.511 280.601 135.2 282.854 139.447C286.974 147.213 290.296 148.974 302.261 149.738C310.83 150.285 313.534 150.883 318.257 153.272C325.361 156.866 332.233 164.117 335.601 171.57C337.897 176.651 338.195 178.631 338.269 189.29C338.334 198.669 337.993 201.945 336.705 204.29C334.185 208.882 329.978 212.402 323.38 215.439C317.959 217.934 316.27 218.205 305.88 218.245C295.227 218.287 293.955 218.081 288.604 215.454C285.428 213.894 281.467 211.472 279.801 210.07C276.745 207.499 270.88 197.143 270.88 194.319C270.88 192.316 269.262 192.351 268.488 194.369C266.995 198.259 271.001 206.678 277.047 212.363C286.169 220.938 293.661 223.367 308.074 222.423C320.728 221.593 327.731 218.99 334.483 212.604C340.981 206.459 342.287 202.179 342.201 187.317C342.141 177.004 341.928 175.856 338.906 169.59C334.744 160.959 326.532 152.438 319.074 149.012C314.67 146.989 311.341 146.3 304.38 145.971C289.407 145.263 284.076 140.87 285.182 130.153C286.386 118.484 292.226 110.157 306.651 99.5374C312.551 95.1944 323.737 90.7904 328.869 90.7904C330.163 90.7904 330.88 90.2834 330.636 89.5404C329.941 87.4254 323.713 87.6794 316.652 90.1114ZM49.3959 93.0404C50.2689 96.8544 51.0659 145.83 50.3299 150.437C49.7869 153.838 50.3929 153.613 37.1299 155.355L31.8799 156.044L31.9119 149.667C31.9289 146.16 32.5949 138.79 33.3919 133.29C34.1889 127.79 34.8499 117.155 34.8609 109.657C34.8789 96.6834 34.9809 95.9974 36.9669 95.4784C38.3219 95.1234 38.9289 94.2934 38.6979 93.1114C38.2899 91.0194 34.7259 90.8964 14.6789 92.2824C6.44589 92.8514 2.82688 93.4864 2.46688 94.4254C1.93888 95.8014 4.69287 97.7904 7.12487 97.7904C8.27787 97.7904 8.47887 106.351 8.36187 150.54C8.28487 179.552 7.85588 207.456 7.40688 212.549L6.59188 221.808L3.48586 222.608C1.39386 223.147 0.276872 224.112 0.0648718 225.564C-0.342128 228.353 0.594873 228.525 20.0649 229.237C37.1379 229.861 39.4359 229.239 34.5239 225.323L31.8449 223.187L32.9849 215.238C33.8559 209.171 33.8239 201.903 32.8519 184.524C32.1519 172.003 31.7959 161.541 32.0609 161.275C32.5669 160.77 40.0589 159.02 45.6429 158.104L48.9059 157.568L48.7799 175.429C48.7099 185.253 48.0289 197.757 47.2669 203.216C45.3749 216.759 45.4299 224.68 47.4229 225.445C49.9579 226.418 50.3909 225.016 50.1299 216.685C49.9929 212.318 50.3259 206.76 50.8699 204.333C51.4139 201.906 51.8979 193.254 51.9459 185.105C51.9929 176.957 52.4609 165.115 52.9849 158.79C54.4339 141.315 54.2669 97.5034 52.7359 93.2694C51.0659 88.6504 48.3499 88.4634 49.3959 93.0404ZM364.304 92.0404C364.558 93.2774 365.254 96.5404 365.85 99.2904C367.331 106.116 367.362 136.678 365.915 163.29C365.257 175.39 364.756 191.906 364.801 199.993L364.883 214.695L361.131 215.737C359.068 216.31 356.24 216.781 354.847 216.784C352.36 216.79 352.32 216.67 352.59 210.04C352.741 206.327 353.32 192.715 353.876 179.79C355.204 148.875 355.154 115.953 353.76 104.131C352.52 93.6204 352.688 93.1254 358.174 91.1164C362.861 89.4004 363.791 89.5404 364.304 92.0404ZM31.8579 105.54C31.8459 110.902 31.0839 121.815 30.1659 129.79C28.4589 144.609 28.3949 148.293 29.0199 195.454C29.2179 210.394 29.0669 222.931 28.6849 223.315C28.3029 223.699 24.1399 223.441 19.4349 222.741L10.8799 221.468L10.8769 211.879C10.8759 206.605 11.3919 195.202 12.0239 186.54C12.8839 174.757 12.8889 166.823 12.0429 155.04C11.3669 145.618 11.1709 130.953 11.5539 118.54L12.1949 97.7904L16.7869 97.7324C19.3129 97.7014 23.1799 97.3024 25.3799 96.8474C27.5799 96.3924 29.9429 95.9684 30.6299 95.9054C31.5539 95.8204 31.8739 98.3354 31.8579 105.54ZM314.478 99.0404C311.901 103.043 309.081 113.102 308.376 120.807C307.601 129.278 309.433 137.681 313.059 142.29C316.711 146.934 317.388 143.717 314.354 136.134C311.868 129.919 311.672 128.509 312.22 120.79C312.802 112.593 314.332 106.684 317.417 100.719C319.241 97.1914 319.24 96.7904 317.403 96.7904C316.591 96.7904 315.274 97.8034 314.478 99.0404ZM742.614 129.881C736.666 131.278 731.222 134.475 728.327 138.271C725.645 141.787 725.598 144.79 728.226 144.79C729.001 144.79 730.195 145.465 730.88 146.29C731.565 147.115 732.745 147.79 733.502 147.79C735.555 147.79 735.167 144.359 732.88 142.29C730.211 139.875 730.295 139.633 734.664 137.139C743.888 131.874 751.193 132.127 758.264 137.955C762.883 141.763 767.888 150.614 767.851 154.912L767.821 158.29L764.92 155.101C761.016 150.812 756.71 148.731 750.385 148.078C744.166 147.436 736.909 149.725 732.544 153.704C728.035 157.816 723.017 167.294 721.26 175.019C719.232 183.934 720.336 189.884 725.57 198.251C728.554 203.023 730.13 204.453 734.563 206.413C740.177 208.896 745.326 209.496 746.38 207.79C746.72 207.24 747.884 206.79 748.968 206.79C751.658 206.79 761.944 201.491 764.285 198.899C766.88 196.025 767.762 196.249 767.662 199.755C767.549 203.731 769.466 205.794 773.252 205.773C779.218 205.74 782.902 198.822 779.399 194.231C778.202 192.662 777.746 192.551 777.022 193.651C776.529 194.399 776.348 195.864 776.621 196.906C777.168 198.999 775.328 201.79 773.401 201.79C772.455 201.79 772.171 196.12 772.185 177.54C772.206 150.382 771.778 147.754 766.124 140.322C759.664 131.831 750.893 127.936 742.614 129.881ZM671.88 135.482C666.651 136.36 663.092 137.936 660.777 140.399C658.415 142.914 658.378 143.258 658.226 164.12C658.081 184.241 655.641 211.212 652.888 223.136C652.36 225.421 651.918 229.388 651.904 231.952C651.891 234.516 651.185 240.141 650.336 244.452C649.486 248.763 648.155 256.099 647.377 260.753C645.452 272.271 641.083 280.7 634.081 286.404C630.066 289.674 627.83 290.79 625.288 290.79C620.601 290.79 620.691 293.476 625.408 294.361C628.283 294.901 629.67 294.515 632.903 292.274C642.349 285.728 649.003 275.485 650.865 264.623C651.368 261.69 652.702 254.283 653.83 248.164C654.957 242.045 655.882 235.07 655.884 232.664C655.886 230.258 656.584 224.015 657.435 218.79C660.861 197.756 662.029 183.724 662.066 163.163L662.103 142.036L666.242 140.663C668.52 139.907 674.425 139.29 679.38 139.29C687.195 139.29 689.204 139.671 694.642 142.182C701.457 145.329 706.908 150.601 709.465 156.518C711.949 162.267 713.855 169.866 713.868 174.073C713.895 182.708 705.621 192.702 693.07 199.192C690.33 200.608 674.543 204.693 671.514 204.768C671.037 204.78 670.932 201.753 671.28 198.04C674.041 168.608 674.016 142.79 671.226 142.79C670.325 142.79 669.847 144.195 669.779 147.04C669.724 149.378 669.548 159.2 669.389 168.868C669.231 178.535 668.583 188.885 667.95 191.868C667.317 194.85 666.433 202.015 665.986 207.79C664.473 227.328 658.645 257.485 654.331 268.103C652.983 271.421 651.88 275.082 651.88 276.24C651.88 280.135 647.285 285.288 640.663 288.816C638.155 290.153 637.132 291.284 637.52 292.294C638.417 294.632 640.03 294.117 646.462 289.437C652.703 284.896 654.656 281.805 657.295 272.29C658.057 269.54 660.047 262.565 661.716 256.79C663.385 251.015 665.038 243.815 665.388 240.79C665.739 237.765 666.874 230.565 667.91 224.79C668.946 219.015 669.926 213.182 670.087 211.827C670.396 209.228 670.661 209.122 682.84 206.698C698.285 203.624 713.414 191.354 716.979 179.01C719.311 170.932 714.124 153.63 707.158 146.255C698.45 137.033 685.748 133.155 671.88 135.482ZM620.38 140.386C606.42 145.464 600.127 156.483 607.515 162.913C609.409 164.561 613.803 165.714 626.38 167.863C640.635 170.3 646.793 176.039 647.085 187.164C647.262 193.881 645.019 197.952 638.324 203.068C623.019 214.764 605.116 216.949 600.336 207.705C599.535 206.156 598.88 202.569 598.88 199.733C598.88 195.441 599.145 194.678 600.462 195.183C601.332 195.517 603.979 195.79 606.344 195.79H610.644L610.701 199.872C610.766 204.609 612.983 208.498 616.347 209.778C620.722 211.441 629.161 207.672 627.409 204.837C626.983 204.148 625.792 204.301 623.873 205.294C618.038 208.311 614.88 206.678 614.88 200.642C614.88 198.019 615.639 196.074 617.406 194.167C620.814 190.49 619.358 189.18 613.502 190.655C607.21 192.239 603.536 192.074 600.004 190.047C595.786 187.625 594.717 189.091 594.617 197.431C594.55 202.962 595.039 205.276 597.143 209.38C599.331 213.65 600.5 214.755 604.409 216.248C614.858 220.238 631.441 214.816 643.718 203.395C652.328 195.384 653.379 182.696 646.218 173.201C642.34 168.06 635.341 164.999 622.272 162.729C615.768 161.6 609.87 160.197 609.164 159.611C607.304 158.067 607.589 154.43 609.788 151.634C613.867 146.448 628.599 140.928 634.444 142.395C637.379 143.132 637.734 141.317 634.946 139.825C632.248 138.381 625.139 138.655 620.38 140.386ZM493.38 141.819C486.366 142.442 481.251 144.881 479.668 148.357C478.684 150.515 478.903 151.205 481.398 153.809C482.969 155.448 484.62 156.79 485.067 156.79C486.463 156.79 485.955 153.097 484.38 151.79C482.177 149.961 482.516 149.03 486.051 147.202C491.043 144.62 504.827 145.639 511.542 149.085C519.652 153.248 521.307 156.36 521.757 168.29C521.964 173.79 521.581 185.04 520.906 193.29C519.714 207.848 519.742 208.461 521.868 214.088L524.059 219.886L528.72 219.221C534.771 218.358 535.446 217.601 533.246 214.147C530.126 209.25 527.258 208.175 528.291 212.29C528.742 214.09 528.515 214.79 527.479 214.79C525.319 214.79 524.455 209.398 524.915 198.79C525.141 193.565 525.338 182.315 525.353 173.79L525.38 158.29L522.317 153.29C517.068 144.72 506.751 140.631 493.38 141.819ZM85.2699 144.419C79.1709 148.54 77.3959 150.751 73.6509 158.884C68.6019 169.849 67.4679 175.565 67.4209 190.29C67.3849 201.66 67.6729 204.017 69.7199 209.09C72.5859 216.19 81.6669 227.131 86.9199 229.81C94.3419 233.597 103.574 231.508 109.254 224.757C112.397 221.022 112.508 219.332 109.891 215.04C106.54 209.544 104.761 211.052 107.068 217.433C108.093 220.268 108.003 220.996 106.413 222.754C104.155 225.249 103.198 225.317 102.405 223.04C102.07 222.077 99.3109 219.303 96.2739 216.875C88.3829 210.566 86.7339 206.817 87.0919 196.005L87.3799 187.29L90.3799 187.546C99.5599 188.327 107.564 183.189 109.82 175.067C112.208 166.469 110.278 152.16 106.056 147.164C101.108 141.307 91.7099 140.066 85.2699 144.419ZM146.052 145.311C144.501 148.715 144.562 152.731 146.173 153.349C148.621 154.288 155.356 152.271 155.698 150.496C155.949 149.193 155.316 148.79 153.02 148.79C150.506 148.79 149.961 148.352 149.696 146.117C149.273 142.537 147.495 142.144 146.052 145.311ZM192.595 143.408C192.255 143.748 192.237 145.323 192.554 146.908C193.181 150.045 193.631 149.866 184.38 150.162C181.548 150.253 180.38 150.728 180.38 151.79C180.38 152.963 181.741 153.29 186.632 153.29C191.92 153.29 192.883 153.56 192.882 155.04C192.879 157.392 195.554 157.268 196.845 154.856C198.294 152.147 198.135 149.184 196.354 145.74C194.852 142.836 193.813 142.191 192.595 143.408ZM624.335 146.245C620.371 150.208 621.796 159.069 626.83 161.763C629.967 163.442 630.324 161.106 627.452 157.693C624.358 154.016 624.226 151.892 626.88 148.517C630.64 143.737 628.634 141.945 624.335 146.245ZM101.793 148.56C106.159 151.796 108.341 165.99 105.851 174.955C104.26 180.684 94.6559 185.346 89.7999 182.747C87.7239 181.636 87.6369 181.119 88.2419 173.43C88.8819 165.279 91.7779 153.823 93.8179 151.364C94.6199 150.399 94.5019 149.721 93.3679 148.78C92.5229 148.079 91.5639 147.773 91.2359 148.1C90.9089 148.428 89.3579 152.61 87.7909 157.393C85.3569 164.822 84.7669 168.898 83.7499 185.343C82.6729 202.763 82.7179 204.928 84.2199 208.094C85.1329 210.018 85.8799 212.002 85.8799 212.503C85.8799 213.605 98.3259 224.034 100.696 224.918C103.655 226.022 97.5539 228.139 93.5679 227.391C86.1359 225.997 76.7469 216.397 72.9869 206.346C68.8559 195.304 70.6079 174.744 76.8289 161.28C80.3489 153.66 84.8749 148.522 89.8799 146.464C92.4729 145.398 99.0989 146.564 101.793 148.56ZM407.326 147.677C406.469 148.535 406.963 154.339 408.4 160.29C411.924 174.884 408.725 216.082 400.913 256.709C398.638 268.543 394.359 278.606 389.785 282.878C386.207 286.221 384.792 286.434 381.314 284.155C378.109 282.055 377.151 283.028 379.257 286.243C381.486 289.645 385.507 290.541 389.155 288.447C390.743 287.536 392.793 286.788 393.711 286.786C395.62 286.781 401.422 283.034 408.158 277.458C415.745 271.176 420.103 262.108 423.837 244.837C424.961 239.638 425.88 233.738 425.88 231.726C425.88 229.715 426.151 226.094 426.482 223.68L427.083 219.29L433.4 219.021C444.363 218.555 453.813 213.105 461.252 202.959C465.456 197.224 466.785 192.516 466.975 182.676C467.102 176.094 466.715 174.229 464.061 168.67C459.061 158.193 455.72 154.329 448.651 150.849C442.362 147.753 442.129 147.72 425.036 147.477C415.541 147.342 407.571 147.432 407.326 147.677ZM445.546 153.938C451.846 156.295 456.034 160.788 460.277 169.743C462.958 175.399 463.362 177.312 463.245 183.796C463.086 192.664 461.42 197.173 455.841 203.836C450.175 210.604 441.61 214.79 433.426 214.79H427.291L427.707 196.334C428.185 175.083 427.412 164.931 425.25 164.102C424.449 163.794 423.616 163.721 423.399 163.938C423.182 164.155 423.439 170.514 423.971 178.069C424.613 187.173 424.596 195.427 423.92 202.547C423.36 208.456 422.719 217.565 422.497 222.79C421.804 239.047 418.077 256.013 413.134 265.418C410.819 269.822 398.638 281.564 398.09 279.92C397.91 279.381 398.619 277.218 399.664 275.115C407.454 259.443 416.148 187.293 412.898 165.29C412.247 160.89 411.491 155.94 411.217 154.29L410.718 151.29L425.525 151.639C437.127 151.912 441.46 152.409 445.546 153.938ZM758.316 154.51C760.001 155.378 761.983 156.942 762.72 157.987C763.494 159.083 764.972 159.759 766.22 159.588C767.994 159.343 768.369 159.782 768.318 162.04C768.283 163.552 768.171 171.09 768.068 178.79C767.944 188.046 767.513 192.79 766.798 192.79C766.203 192.79 763.786 194.372 761.427 196.305C759.068 198.238 753.872 200.992 749.882 202.425C743.506 204.715 742.159 204.891 738.771 203.876C733.893 202.414 729.392 197.792 726.152 190.917C723.979 186.305 723.71 184.688 724.252 179.503C725.401 168.515 732.084 157.004 739.264 153.649C744.042 151.416 753.105 151.825 758.316 154.51ZM744.456 159.67C740.479 165.97 736.736 175.782 736.152 181.439C735.701 185.817 736.06 187.638 738.267 192.149C741.718 199.203 743.184 200.428 746.41 198.958C749.462 197.568 749.597 196.034 746.705 195.61C745.317 195.406 743.659 193.662 742.122 190.79C740.188 187.175 739.821 185.34 740.259 181.464C740.974 175.133 745.43 163.986 748.591 160.621C749.97 159.153 750.798 157.466 750.43 156.871C749.135 154.775 746.878 155.832 744.456 159.67ZM491.38 161.643C484.977 163.736 478.354 169.657 477.428 174.117C477.18 175.312 476.06 180.376 474.939 185.37C473.033 193.859 473 194.834 474.43 200.37C477.814 213.466 483.365 219.79 491.479 219.79C499.983 219.79 513.023 214.938 516.822 210.359C519.174 207.526 515.345 207.433 510.609 210.209C505.25 213.349 503.516 213.511 504.38 210.79C504.899 209.155 504.56 208.79 502.519 208.79C499.303 208.79 497.465 206.889 495.365 201.391C493.886 197.517 493.824 196.027 494.876 189.623C496.317 180.855 498.948 174.389 501.797 172.61C504.1 171.171 504.602 168.79 502.603 168.79C500.25 168.79 496.872 171.886 494.806 175.935C492.285 180.877 489.738 194.775 490.561 199.098C491.557 204.33 494.758 209.745 498.03 211.735C500.986 213.533 501.024 213.643 499.056 214.696C497.931 215.298 495.018 215.79 492.581 215.79C486.824 215.79 483.323 213.04 480.258 206.11C476.702 198.069 476.439 194.333 478.796 185.352C479.942 180.986 480.88 176.633 480.88 175.678C480.88 170.113 490.837 164.79 501.246 164.79C506.534 164.79 514.628 167.971 515.568 170.418C516.194 172.052 518.491 172.229 519.426 170.716C520.382 169.168 516.04 164.831 511.38 162.68C507.34 160.815 495.75 160.215 491.38 161.643ZM295.879 181.061C292.133 182.87 289.581 183.239 280.63 183.262C271.218 183.287 269.88 183.5 269.88 184.979C269.88 187.154 276.77 188.276 285.258 187.484L291.38 186.912L291.389 193.101C291.401 201.895 293.931 207.888 298.782 210.615C304.775 213.983 314.88 213.339 314.88 209.59C314.88 209.15 312.586 208.79 309.781 208.79C303.813 208.79 298.038 206.36 296.939 203.387C296.513 202.233 295.86 198.927 295.488 196.039C294.748 190.3 295.518 188.012 299.696 183.533C303.375 179.589 301.475 178.358 295.879 181.061ZM548.547 200.457C547.011 201.992 548.15 202.698 552.63 202.985C556.857 203.256 557.412 203.566 557.668 205.79C558.255 210.903 561.038 215.668 563.759 216.219C569.254 217.334 577.785 217.114 579.348 215.816C580.217 215.095 580.702 214.278 580.424 214.001C580.147 213.724 576.433 213.324 572.169 213.113C567.906 212.901 564.036 212.346 563.57 211.88C563.103 211.413 562.284 209.083 561.748 206.7C561.213 204.318 560.294 201.789 559.705 201.079C558.604 199.752 549.745 199.258 548.547 200.457ZM249.623 232.874C247.331 234.209 244.486 239.869 242.361 247.32C240.532 253.737 235.877 262.834 232.478 266.637C231.324 267.928 228.719 269.837 226.688 270.878C215.357 276.689 211.933 280.436 211.902 287.06C211.881 291.616 208.757 298.512 205.921 300.265C204.736 300.997 204.488 304.815 205.63 304.742C206.043 304.715 208.293 302.156 210.63 299.054C214.273 294.22 214.88 292.721 214.88 288.555C214.88 282.897 216.571 280.871 225.068 276.347C236.011 270.52 241.227 263.2 246.269 246.598C248.37 239.68 249.521 237.47 251.906 235.771C256.108 232.78 254.119 230.256 249.623 232.874ZM316.431 252.707C316.084 253.27 316.942 255.877 318.34 258.502C321.192 263.86 321.536 268.161 319.5 273.006C317.027 278.89 315.682 283.925 316.398 284.615C318.235 286.384 324.138 272.622 324.262 266.278C324.312 263.774 323.368 260.408 321.754 257.325C319.1 252.259 317.543 250.908 316.431 252.707ZM504.13 253.496C500.081 254.276 501.461 256.79 505.937 256.79C509.694 256.79 510.525 257.351 517.142 264.361C521.072 268.525 525.022 273.138 525.918 274.611C526.814 276.084 529.528 278.64 531.949 280.29C534.369 281.94 537.931 284.915 539.865 286.901C543.757 290.899 549.973 292.788 552.456 290.727C554.563 288.978 554.188 287.79 551.529 287.79C547.331 287.79 543.315 285.796 541.573 282.848C540.636 281.261 537.959 279.031 535.625 277.891C533.225 276.72 530.311 274.183 528.921 272.055C527.569 269.984 522.961 264.802 518.682 260.54C510.882 252.771 510.031 252.359 504.13 253.496ZM446.268 258.22C445.353 260.607 447.365 262.462 449.21 260.931C450.295 260.031 451.526 260.053 454.502 261.025C458.173 262.226 458.471 262.639 460.092 268.792C461.034 272.366 463.009 278.834 464.481 283.165C466.925 290.358 467.542 291.267 471.602 293.665C474.047 295.109 479.047 298.81 482.713 301.889C490.931 308.791 493.396 310.128 496.473 309.356C499.773 308.528 499.494 307.084 495.879 306.29C494.229 305.927 489.468 302.733 485.3 299.19C481.132 295.648 475.965 291.854 473.817 290.758C471.141 289.393 469.723 287.904 469.313 286.028C468.984 284.522 467.879 281.245 466.857 278.745C465.836 276.244 464.078 270.872 462.952 266.806C461.825 262.74 460.5 259.01 460.007 258.517C459.514 258.024 456.369 257.373 453.017 257.069C447.877 256.603 446.82 256.783 446.268 258.22Z" fill="#9c4b45"/>
</svg>
