<svg width="512" height="512" viewBox="0 0 100 100" xmlns="http://www.w3.org/2000/svg">
  <rect width="100" height="100" rx="22" fill="#f3efe8"/>
  <g stroke="#9c4b45" stroke-width="3" stroke-linecap="round" fill="none">
    <path d="M50 14 L50 23"/>
    <path d="M68 19 L64 27" transform="rotate(2 50 50)"/>
    <path d="M81 32 L74 37" transform="rotate(-2 50 50)"/>
    <path d="M86 50 L77 50"/>
    <path d="M81 68 L74 63" transform="rotate(2 50 50)"/>
    <path d="M68 81 L64 73" transform="rotate(-2 50 50)"/>
    <path d="M50 86 L50 77"/>
    <path d="M32 81 L36 73" transform="rotate(2 50 50)"/>
    <path d="M19 68 L26 63" transform="rotate(-2 50 50)"/>
    <path d="M14 50 L23 50"/>
    <path d="M19 32 L26 37" transform="rotate(2 50 50)"/>
    <path d="M32 19 L36 27" transform="rotate(-2 50 50)"/>
    <circle cx="50" cy="50" r="15" stroke-width="3.5"/>
  </g>
</svg>
